# AST/ASF file generated using VICON BodyLanguage
# -----------------------------------------------
:version 1.10
:name VICON
:units
  mass 1.0
  length 0.45
  angle deg
:documentation
   .ast/.asf automatically generated from VICON data using
   VICON BodyBuilder and BodyLanguage model FoxedUp or BRILLIANT.MOD
:root
   order TX TY TZ RX RY RZ
   axis XYZ
   position 0 0 0  
   orientation 0 0 0 
:bonedata
  begin
     id 1 
     name lhipjoint
     direction 0.606768 -0.715223 0.346827 
     length 2.41543 
     axis 0 0 0  XYZ
  end
  begin
     id 2 
     name lfemur
     direction 0.34202 -0.939693 0  
     length 7.2778  
     axis 0 0 20  XYZ
    dof rx ry rz
    limits (-160.0 20.0)
           (-70.0 70.0)
           (-60.0 70.0)
  end
  begin
     id 3 
     name ltibia
     direction 0.34202 -0.939693 0   
     length 7.61811   
     axis 0 0 20   XYZ
    dof rx
    limits (-10.0 170.0)
  end
  begin
     id 4 
     name lfoot
     direction 0.0823924 -0.226371 0.97055   
     length 2.33618   
     axis -90 7.62852e-016 20   XYZ
    dof rx rz
    limits (-45.0 90.0)
           (-70.0 20.0)
  end
  begin
     id 5 
     name ltoes
     direction 1.53554e-011 -4.21934e-011 1   
     length 1.17015   
     axis -90 7.62852e-016 20   XYZ
    dof rx
    limits (-90.0 20.0)
  end
  begin
     id 6 
     name rhipjoint
     direction -0.6077 -0.714582 0.346516   
     length 2.4176  
     axis 0 0 0  XYZ 
  end
  begin
     id 7 
     name rfemur
     direction -0.34202 -0.939693 0   
     length 7.28127   
     axis 0 0 -20   XYZ
    dof rx ry rz
    limits (-160.0 20.0)
           (-70.0 70.0)
           (-70.0 60.0)
  end
  begin
     id 8 
     name rtibia
     direction -0.34202 -0.939693 0   
     length 7.77648   
     axis 0 0 -20   XYZ
    dof rx
    limits (-10.0 170.0)
 end
 begin
     id 9 
     name rfoot
     direction -0.0809463 -0.222398 0.97159   
     length 2.37533  
     axis -90 -7.62852e-016 -20   XYZ
    dof rx rz
    limits (-45.0 90.0)
           (-20.0 70.0)
  end
  begin
     id 10 
     name rtoes
     direction -1.53568e-011 -4.21714e-011 1   
     length 1.18972   
     axis -90 -7.62852e-016 -20   XYZ
    dof rx
    limits (-90.0 20.0)
  end
  begin
     id 11 
     name lowerback
     direction 0.010968 0.991932 -0.126297   
     length 2.21698   
     axis 0 0 0   XYZ
    dof rx ry rz
    limits (-20.0 45.0)
           (-30.0 30.0)
           (-30.0 30.0)
  end
  begin
     id 12 
     name upperback
     direction 0.0167007 0.997503 -0.0686276   
     length 2.22371   
     axis 0 0 0   XYZ
    dof rx ry rz
    limits (-20.0 45.0)
           (-30.0 30.0)
           (-30.0 30.0)
  end
  begin
     id 13 
     name thorax
     direction 0.0111721 0.999885 -0.0102878   
     length 2.25242   
     axis 0 0 0   XYZ
    dof rx ry rz
    limits (-20.0 45.0)
           (-30.0 30.0)
           (-30.0 30.0)
  end
  begin
     id 14 
     name lowerneck
     direction -0.0120265 0.990428 0.137508   
     length 1.57674   
     axis 0 0 0   XYZ
    dof rx ry rz
    limits (-20.0 45.0)
           (-30.0 30.0)
           (-30.0 30.0)
  end
  begin
     id 15 
     name upperneck
     direction 0.0175669 0.998907 0.0433089   
     length 1.5618   
     axis 0 0 0   XYZ
    dof rx ry rz
    limits (-20.0 45.0)
           (-30.0 30.0)
           (-30.0 30.0)
  end
  begin
     id 16
     name head
     direction 0.00754609 0.99997 0.00185367  
     length 1.60579  
     axis 0 0 0   XYZ
    dof rx ry rz
    limits (-20.0 45.0)
           (-30.0 30.0)
           (-30.0 30.0)
  end
  begin
     id 17 
     name lclavicle
     direction 0.885866 0.429166 -0.176231  
     length 3.44967  
     axis 0 0 0   XYZ
    dof ry rz
    limits (-20.0 10.0)
           (0.0 20.0)
  end
  begin
     id 18 
     name lhumerus
     direction 1 -4.48973e-011 -1.90255e-027   
     length 5.20607   
     axis 180 -30 -90   XYZ
    dof rx ry rz
    limits (-60.0 90.0)
           (-90.0 90.0)
           (-90.0 90.0)
  end
  begin
     id 19
     name lradius
     direction 1 -4.48956e-011 9.87925e-027   
     length 3.39961   
     axis 180 -30 -90   XYZ
    dof rx
    limits (-10.0 170.0)
  end
  begin
     id 20
     name lwrist
     direction 1 -4.48985e-011 1.73247e-026   
     length 1.6998   
     axis -9.60847e-015 90 90   XYZ
    dof ry
    limits (-180.0 0.0)
 end
  begin
     id 21 
     name lhand
     direction 1 -4.48798e-011 3.46119e-026   
     length 0.519693   
     axis -2.21073e-014 90 90   XYZ
    dof rx rz
    limits (-90.0 90.0)
           (-45.0 45.0)
  end
  begin
     id 22 
     name lfingers
     direction 1 -4.48938e-011 6.92797e-026   
     length 0.41899   
     axis -4.42155e-014 90 90   XYZ
    dof rx
    limits (0.0 90.0)
  end
  begin
     id 23
     name lthumb
     direction 0.707107 -6.34952e-011 0.707107   
     length 0.601588   
     axis -90 45 6.0103e-014   XYZ
    dof rx rz
    limits (-45.0 45.0)
           (-45.0 45.0)
  end
  begin
     id 24 
     name rclavicle
     direction -0.866736 0.456792 -0.200276   
     length 3.45032  
     axis 0 0 0   XYZ 
    dof ry rz
    limits (-10.0 20.0)
           (-20.0 0.0)
  end
  begin
     id 25 
     name rhumerus
     direction -1 -4.4897e-011 8.65094e-028  
     length 5.32214   
     axis 180 30 90   XYZ
    dof rx ry rz
    limits (-90.0 60.0)
           (-90.0 90.0)
           (-90.0 90.0)
  end
  begin
     id 26 
     name rradius
     direction -1 -4.48987e-011 1.08427e-026   
     length 3.51208   
     axis 180 30 90   XYZ
    dof rx
    limits (-10.0 170.0)
  end
  begin
     id 27 
     name rwrist
     direction -1 -4.48961e-011 1.73222e-026   
     length 1.75604   
     axis -9.60847e-015 -90 -90   XYZ
    dof ry
    limits (-180.0 0.0)
  end
  begin
     id 28
     name rhand
     direction -1 -4.48895e-011 3.46314e-026   
     length 0.586681   
     axis -2.21073e-014 -90 -90   XYZ
    dof rx rz
    limits (-90.0 90.0)
           (-45.0 45.0)
  end
  begin
     id 29
     name rfingers
     direction -1 -4.48968e-011 6.92916e-026   
     length 0.472997   
     axis -4.42155e-014 -90 -90   XYZ
    dof rx
    limits (0.0 90.0)
  end
  begin
     id 30
     name rthumb
     direction -0.707107 -6.34848e-011 0.707107   
     length 0.679133   
     axis -90 -45 -6.0103e-014   XYZ
    dof rx rz
    limits (-45.0 45.0)
           (-45.0 45.0)
  end
:hierarchy
  begin
    root lhipjoint rhipjoint lowerback
    lhipjoint lfemur
    lfemur ltibia
    ltibia lfoot
    lfoot ltoes
    rhipjoint rfemur
    rfemur rtibia
    rtibia rfoot
    rfoot rtoes
    lowerback upperback
    upperback thorax
    thorax lowerneck lclavicle rclavicle
    lowerneck upperneck
    upperneck head
    lclavicle lhumerus
    lhumerus lradius
    lradius lwrist
    lwrist lhand lthumb
    lhand lfingers
    rclavicle rhumerus
    rhumerus rradius
    rradius rwrist
    rwrist rhand rthumb
    rhand rfingers
  end

#!OML:ASF H:\Dans Jumps\Project 1\Capture day 1\Session 1\subject.ASF
:FULLY-SPECIFIED
:DEGREES
1
root 0.0235335 17.4911 -14.1872 6.07013 -0.977496 -1.10084
lowerback -0.329266 -1.06176 -0.0187849
upperback 2.79701 -1.45924 1.59495
thorax 3.09873 -0.751362 1.60514
lowerneck -9.23511 -4.63634 -4.24618
upperneck 10.3225 -5.80821 1.36485
head 4.77439 -2.93139 0.70739
rclavicle -1.37161e-014 -3.97569e-016
rhumerus -17.9668 -13.8524 -80.018
rradius 26.7219
rwrist 31.0336
rhand -19.1599 -27.1294
rfingers 7.12502
rthumb 7.15083 -56.9886
lclavicle -1.37161e-014 -3.97569e-016
lhumerus -18.0301 1.3645 85.3707
lradius 22.0942
lwrist 2.70005
lhand -24.7464 -3.17932
lfingers 7.12502
lthumb 1.75652 26.7932
rfemur -14.455 -3.43707 19.9595
rtibia 23.3646
rfoot -14.3702 -0.724558
rtoes 11.5615
lfemur -12.9264 6.57003 -16.8513
ltibia 20.7998
lfoot -11.4465 4.8924
ltoes -1.86696
2
root 0.0313477 17.4928 -14.1789 6.03065 -0.84608 -1.11838
lowerback -0.418599 -1.13367 -0.0375038
upperback 2.78395 -1.55544 1.59331
thorax 3.13894 -0.799844 1.60924
lowerneck -9.43452 -4.95634 -4.38947
upperneck 10.4935 -6.23373 1.54511
head 4.8828 -3.13349 0.746798
rclavicle 1.27719e-014 1.8487e-014
rhumerus -18.1838 -14.4431 -79.9512
rradius 26.5095
rwrist 31.3314
rhand -19.1354 -27.1343
rfingers 7.12502
rthumb 7.17449 -56.9927
lclavicle 1.27719e-014 1.8487e-014
lhumerus -18.3337 1.3349 85.5752
lradius 21.9791
lwrist 2.5644
lhand -24.7732 -3.56139
lfingers 7.12502
lthumb 1.73066 26.4113
rfemur -14.2886 -3.31662 19.9568
rtibia 23.2355
rfoot -14.3677 -1.03192
rtoes 11.4126
lfemur -12.8133 6.58228 -16.8397
ltibia 20.6629
lfoot -11.4377 4.73004
ltoes -1.99654
3
root 0.0416614 17.4953 -14.1686 5.9999 -0.773475 -1.13822
lowerback -0.50287 -1.17374 -0.0151733
upperback 2.73574 -1.60893 1.57368
thorax 3.13701 -0.825425 1.57348
lowerneck -9.09462 -5.21411 -4.482
upperneck 10.0882 -6.59449 1.67446
head 4.71909 -3.30714 0.788525
rclavicle -1.70458e-014 -1.41137e-014
rhumerus -18.5548 -14.9598 -79.8614
rradius 26.4021
rwrist 31.5786
rhand -19.0174 -27.3524
rfingers 7.12502
rthumb 7.2884 -57.2069
lclavicle -1.70458e-014 -1.41137e-014
lhumerus -18.6782 1.19182 85.7745
lradius 21.8345
lwrist 2.5362
lhand -24.5789 -3.40577
lfingers 7.12502
lthumb 1.91822 26.5654
rfemur -14.08 -3.25221 19.9394
rtibia 23.0212
rfoot -14.3076 -1.2003
rtoes 11.4789
lfemur -12.7157 6.61859 -16.8473
ltibia 20.5783
lfoot -11.4481 4.64423
ltoes -2.10896
4
root 0.0527252 17.4977 -14.1592 5.98352 -0.714518 -1.27771
lowerback -0.618685 -1.21423 0.115802
upperback 2.72473 -1.66758 1.59815
thorax 3.18965 -0.851701 1.52089
lowerneck -8.98115 -5.46504 -4.66398
upperneck 9.88261 -6.93003 1.84427
head 4.65961 -3.46862 0.850428
rclavicle 1.75924e-014 -8.94531e-015
rhumerus -18.8697 -15.1994 -79.8384
rradius 26.3125
rwrist 31.4822
rhand -19.2174 -27.3606
rfingers 7.12502
rthumb 7.09526 -57.2216
lclavicle 1.75924e-014 -8.94531e-015
lhumerus -18.9993 1.17928 85.9707
lradius 21.7063
lwrist 2.45067
lhand -24.4221 -3.24732
lfingers 7.12502
lthumb 2.06974 26.7224
rfemur -13.905 -3.20425 20.0599
rtibia 22.8123
rfoot -14.2628 -1.3437
rtoes 11.3567
lfemur -12.6289 6.66328 -16.7319
ltibia 20.4931
lfoot -11.4532 4.58857
ltoes -2.2219
5
root 0.0637393 17.4999 -14.1496 5.95276 -0.658176 -1.37225
lowerback -0.717561 -1.25301 0.207809
upperback 2.70298 -1.72252 1.60654
thorax 3.22198 -0.876784 1.47406
lowerneck -8.86494 -5.71064 -4.78965
upperneck 9.70089 -7.26091 1.96661
head 4.60424 -3.62885 0.88922
rclavicle -4.47266e-015 8.94531e-015
rhumerus -19.2 -15.5223 -79.7917
rradius 26.2081
rwrist 31.512
rhand -19.2738 -27.4522
rfingers 7.12502
rthumb 7.04083 -57.3151
lclavicle -4.47266e-015 8.94531e-015
lhumerus -19.3264 1.1204 86.1703
lradius 21.5671
lwrist 2.38147
lhand -24.2894 -3.15268
lfingers 7.12502
lthumb 2.19783 26.8157
rfemur -13.7 -3.14691 20.1271
rtibia 22.5826
rfoot -14.2051 -1.48993
rtoes 11.2897
lfemur -12.5302 6.67637 -16.6607
ltibia 20.4188
lfoot -11.461 4.55238
ltoes -2.32843
6
root 0.0753523 17.5019 -14.1398 5.91638 -0.623503 -1.47554
lowerback -0.810142 -1.28392 0.314002
upperback 2.68233 -1.76747 1.61542
thorax 3.25109 -0.896503 1.42018
lowerneck -8.75241 -5.93597 -4.90407
upperneck 9.52743 -7.56336 2.06691
head 4.55063 -3.77615 0.921579
rclavicle -1.05853e-014 9.93923e-016
rhumerus -19.5415 -15.775 -79.7563
rradius 26.1134
rwrist 31.4959
rhand -19.332 -27.5366
rfingers 7.12502
rthumb 6.98468 -57.4014
lclavicle -1.05853e-014 9.93923e-016
lhumerus -19.6537 1.06585 86.3667
lradius 21.4167
lwrist 2.31084
lhand -24.1459 -3.00779
lfingers 7.12502
lthumb 2.33641 26.9592
rfemur -13.4848 -3.10114 20.2002
rtibia 22.34
rfoot -14.1418 -1.59769
rtoes 11.2269
lfemur -12.4246 6.66833 -16.5822
ltibia 20.3587
lfoot -11.4713 4.55919
ltoes -2.41331
7
root 0.0872505 17.5039 -14.13 5.87181 -0.611188 -1.57518
lowerback -0.894708 -1.30644 0.41761
upperback 2.66461 -1.80124 1.62269
thorax 3.27835 -0.910689 1.3666
lowerneck -8.66637 -6.14506 -5.00887
upperneck 9.39025 -7.84252 2.15037
head 4.51137 -3.91262 0.947767
rclavicle -1.18277e-014 1.19271e-015
rhumerus -19.8888 -15.9612 -79.731
rradius 26.0247
rwrist 31.4528
rhand -19.3746 -27.6065
rfingers 7.12502
rthumb 6.94353 -57.4726
lclavicle -1.18277e-014 1.19271e-015
lhumerus -19.9772 1.02716 86.559
lradius 21.2531
lwrist 2.2191
lhand -24.007 -2.8548
lfingers 7.12502
lthumb 2.47059 27.1106
rfemur -13.273 -3.06547 20.2665
rtibia 22.115
rfoot -14.088 -1.67137
rtoes 11.1618
lfemur -12.2955 6.6364 -16.5076
ltibia 20.2824
lfoot -11.4685 4.60238
ltoes -2.48538
8
root 0.099252 17.5058 -14.1199 5.81883 -0.622119 -1.66169
lowerback -0.968534 -1.32004 0.506462
upperback 2.64681 -1.82265 1.62654
thorax 3.29946 -0.91903 1.31843
lowerneck -8.59244 -6.33815 -5.10254
upperneck 9.27638 -8.10013 2.22264
head 4.48012 -4.03876 0.96971
rclavicle 1.76918e-014 -2.08724e-014
rhumerus -20.2423 -16.106 -79.7083
rradius 25.9309
rwrist 31.4353
rhand -19.3803 -27.6547
rfingers 7.12502
rthumb 6.93805 -57.521
lclavicle 1.76918e-014 -2.08724e-014
lhumerus -20.2993 1.0009 86.7474
lradius 21.0704
lwrist 2.09885
lhand -23.8867 -2.71787
lfingers 7.12502
lthumb 2.58679 27.2462
rfemur -13.0608 -3.03908 20.3154
rtibia 21.9008
rfoot -14.0379 -1.70981
rtoes 11.1047
lfemur -12.1438 6.58429 -16.4462
ltibia 20.192
lfoot -11.4562 4.67549
ltoes -2.53921
9
root 0.111085 17.5076 -14.1097 5.75963 -0.656336 -1.72498
lowerback -1.03192 -1.32483 0.566388
upperback 2.62903 -1.83131 1.62474
thorax 3.31511 -0.921695 1.28137
lowerneck -8.52496 -6.52216 -5.18406
upperneck 9.17556 -8.34683 2.2933
head 4.4534 -4.15925 0.989696
rclavicle 1.34677e-014 -7.95139e-015
rhumerus -20.5971 -16.2161 -79.6892
rradius 25.8308
rwrist 31.4556
rhand -19.3537 -27.6614
rfingers 7.12502
rthumb 6.96377 -57.5269
lclavicle 1.34677e-014 -7.95139e-015
lhumerus -20.6207 1.0021 86.9275
lradius 20.8738
lwrist 1.93481
lhand -23.7773 -2.58629
lfingers 7.12502
lthumb 2.69244 27.3765
rfemur -12.8553 -3.02325 20.3371
rtibia 21.7059
rfoot -13.9955 -1.71535
rtoes 11.0492
lfemur -11.9696 6.52285 -16.4087
ltibia 20.0807
lfoot -11.4343 4.76588
ltoes -2.57278
